<?xml version="1.0" encoding="UTF-8"?>
<svg id="Layer_1" xmlns="http://www.w3.org/2000/svg" xmlns:xlink="http://www.w3.org/1999/xlink" version="1.1" viewBox="0 0 612 432">
  <!-- Generator: Adobe Illustrator 29.6.0, SVG Export Plug-In . SVG Version: 2.1.1 Build 207)  -->
  <defs>
    <style>
      .st0, .st1, .st2, .st3, .st4, .st5, .st6, .st7, .st8 {
        fill: none;
      }

      .st9, .st10, .st11, .st12, .st13, .st14, .st15, .st16 {
        isolation: isolate;
      }

      .st9, .st17 {
        fill: #ed1d24;
      }

      .st9, .st15, .st16 {
        opacity: .58;
      }

      .st10 {
        letter-spacing: -.02em;
      }

      .st10, .st12, .st13, .st14 {
        font-family: Helvetica, Helvetica;
      }

      .st10, .st13, .st14 {
        font-size: 18px;
      }

      .st1 {
        stroke-width: .45px;
      }

      .st1, .st2, .st3, .st4, .st5, .st6, .st7, .st8 {
        stroke-linecap: round;
        stroke-linejoin: round;
      }

      .st1, .st6 {
        stroke: #000;
      }

      .st12 {
        fill: #231f20;
        font-size: 16px;
      }

      .st18 {
        clip-path: url(#clippath-1);
      }

      .st13 {
        letter-spacing: .02em;
      }

      .st2, .st3 {
        stroke: #5cbcd6;
      }

      .st2, .st5, .st6, .st7 {
        stroke-width: .75px;
      }

      .st3, .st4, .st8 {
        stroke-width: 1.5px;
      }

      .st19, .st15 {
        fill: #5cbcd6;
      }

      .st4 {
        stroke-dasharray: 0 6;
      }

      .st4, .st7 {
        stroke: #ed1d24;
      }

      .st5, .st8 {
        stroke: #f5841f;
      }

      .st20, .st16 {
        fill: #f5841f;
      }

      .st21 {
        clip-path: url(#clippath);
      }

      .st8 {
        stroke-dasharray: 4.5 7.5;
      }
    </style>
    <clipPath id="clippath">
      <rect class="st0" y="-.03" width="612" height="432"/>
    </clipPath>
    <clipPath id="clippath-1">
      <rect class="st0" x="86.4" y="21.57" width="504" height="324"/>
    </clipPath>
  </defs>
  <g class="st21">
    <g>
      <line class="st6" x1="96.25" y1="345.57" x2="571.71" y2="345.57"/>
      <line class="st6" x1="96.25" y1="345.57" x2="96.25" y2="356.37"/>
      <line class="st6" x1="215.12" y1="345.57" x2="215.12" y2="356.37"/>
      <line class="st6" x1="333.98" y1="345.57" x2="333.98" y2="356.37"/>
      <line class="st6" x1="452.85" y1="345.57" x2="452.85" y2="356.37"/>
      <line class="st6" x1="571.71" y1="345.57" x2="571.71" y2="356.37"/>
      <g class="st11">
        <text class="st14" transform="translate(85.99 384.45)"><tspan x="0" y="0">−2</tspan></text>
      </g>
      <g class="st11">
        <text class="st14" transform="translate(204.86 384.45)"><tspan x="0" y="0">−1</tspan></text>
      </g>
      <g class="st11">
        <text class="st14" transform="translate(328.98 384.45)"><tspan x="0" y="0">0</tspan></text>
      </g>
      <g class="st11">
        <text class="st14" transform="translate(447.85 384.45)"><tspan x="0" y="0">1</tspan></text>
      </g>
      <g class="st11">
        <text class="st14" transform="translate(566.71 384.45)"><tspan x="0" y="0">2</tspan></text>
      </g>
      <line class="st6" x1="86.4" y1="308.26" x2="86.4" y2="70.53"/>
      <line class="st6" x1="86.4" y1="308.26" x2="75.6" y2="308.26"/>
      <line class="st6" x1="86.4" y1="248.83" x2="75.6" y2="248.83"/>
      <line class="st6" x1="86.4" y1="189.4" x2="75.6" y2="189.4"/>
      <line class="st6" x1="86.4" y1="129.96" x2="75.6" y2="129.96"/>
      <line class="st6" x1="86.4" y1="70.53" x2="75.6" y2="70.53"/>
      <g class="st11">
        <text class="st14" transform="translate(60.48 326.03) rotate(-90)"><tspan x="0" y="0">−1.0</tspan></text>
      </g>
      <g class="st11">
        <text class="st14" transform="translate(60.48 266.59) rotate(-90)"><tspan x="0" y="0">−0.5</tspan></text>
      </g>
      <g class="st11">
        <text class="st14" transform="translate(60.48 201.91) rotate(-90)"><tspan x="0" y="0">0.0</tspan></text>
      </g>
      <g class="st11">
        <text class="st14" transform="translate(60.48 142.47) rotate(-90)"><tspan x="0" y="0">0.5</tspan></text>
      </g>
      <g class="st11">
        <text class="st14" transform="translate(60.48 83.04) rotate(-90)"><tspan x="0" y="0">1.0</tspan></text>
      </g>
      <rect class="st6" x="86.4" y="21.57" width="504" height="324"/>
      <g class="st11">
        <text class="st14" transform="translate(306.9 427.65)"><tspan x="0" y="0">NMDS1</tspan></text>
      </g>
      <g class="st11">
        <text class="st14" transform="translate(17.28 215.07) rotate(-90)"><tspan x="0" y="0">NMDS2</tspan></text>
      </g>
      <g class="st18">
        <g>
          <rect class="st15" x="250.53" y="175.75" width="8.1" height="8.1"/>
          <rect class="st15" x="318.45" y="226.43" width="8.1" height="8.1"/>
          <rect class="st15" x="274.82" y="141.08" width="8.1" height="8.1"/>
          <rect class="st15" x="314.6" y="188.26" width="8.1" height="8.1"/>
          <rect class="st15" x="290.74" y="146.97" width="8.1" height="8.1"/>
          <rect class="st15" x="273.48" y="161.8" width="8.1" height="8.1"/>
          <rect class="st15" x="278.69" y="184.04" width="8.1" height="8.1"/>
          <rect class="st15" x="281.85" y="197.03" width="8.1" height="8.1"/>
          <rect class="st15" x="314.07" y="231.35" width="8.1" height="8.1"/>
          <rect class="st15" x="322.46" y="160.99" width="8.1" height="8.1"/>
          <rect class="st15" x="294.19" y="137.19" width="8.1" height="8.1"/>
          <rect class="st15" x="273.75" y="257.8" width="8.1" height="8.1"/>
          <rect class="st15" x="267.92" y="143.37" width="8.1" height="8.1"/>
          <rect class="st15" x="317.61" y="213.75" width="8.1" height="8.1"/>
          <rect class="st15" x="292.93" y="195.97" width="8.1" height="8.1"/>
          <rect class="st15" x="305.85" y="147.54" width="8.1" height="8.1"/>
          <rect class="st15" x="257.55" y="214.59" width="8.1" height="8.1"/>
          <rect class="st15" x="314.21" y="244.74" width="8.1" height="8.1"/>
          <rect class="st15" x="266.91" y="220.83" width="8.1" height="8.1"/>
          <rect class="st15" x="300.91" y="167.85" width="8.1" height="8.1"/>
          <path class="st16" d="M320.73,129.74c0-2.22,1.82-4.05,4.05-4.05s4.05,1.83,4.05,4.05-1.82,4.05-4.05,4.05-4.05-1.82-4.05-4.05"/>
          <path class="st16" d="M330.83,210.54c0-2.23,1.82-4.05,4.05-4.05s4.05,1.82,4.05,4.05-1.83,4.05-4.05,4.05-4.05-1.82-4.05-4.05"/>
          <path class="st16" d="M291.91,263.72c0-2.23,1.82-4.05,4.05-4.05s4.05,1.82,4.05,4.05-1.83,4.05-4.05,4.05-4.05-1.82-4.05-4.05"/>
          <path class="st16" d="M268.75,191.61c0-2.23,1.82-4.05,4.05-4.05s4.05,1.82,4.05,4.05-1.82,4.05-4.05,4.05-4.05-1.83-4.05-4.05"/>
          <path class="st16" d="M290.75,175.99c0-2.22,1.82-4.05,4.05-4.05s4.05,1.83,4.05,4.05-1.83,4.05-4.05,4.05-4.05-1.82-4.05-4.05"/>
          <path class="st16" d="M297.91,220.91c0-2.23,1.82-4.05,4.05-4.05s4.05,1.82,4.05,4.05-1.83,4.05-4.05,4.05-4.05-1.83-4.05-4.05"/>
          <path class="st16" d="M315.74,207.73c0-2.23,1.82-4.05,4.05-4.05s4.05,1.82,4.05,4.05-1.82,4.05-4.05,4.05-4.05-1.82-4.05-4.05"/>
          <path class="st16" d="M344.65,240.13c0-2.23,1.82-4.05,4.05-4.05s4.05,1.82,4.05,4.05-1.82,4.05-4.05,4.05-4.05-1.82-4.05-4.05"/>
          <path class="st16" d="M272.73,155.51c0-2.23,1.83-4.05,4.05-4.05s4.05,1.82,4.05,4.05-1.82,4.05-4.05,4.05-4.05-1.82-4.05-4.05"/>
          <path class="st16" d="M345.11,206.51c0-2.23,1.82-4.05,4.05-4.05s4.05,1.82,4.05,4.05-1.82,4.05-4.05,4.05-4.05-1.83-4.05-4.05"/>
          <path class="st16" d="M250.22,148.27c0-2.23,1.82-4.05,4.05-4.05s4.05,1.82,4.05,4.05-1.82,4.05-4.05,4.05-4.05-1.83-4.05-4.05"/>
          <path class="st16" d="M322.62,184.76c0-2.23,1.82-4.05,4.05-4.05s4.05,1.82,4.05,4.05-1.82,4.05-4.05,4.05-4.05-1.82-4.05-4.05"/>
          <path class="st16" d="M408.36,153.39c0-2.23,1.82-4.05,4.05-4.05s4.05,1.82,4.05,4.05-1.83,4.05-4.05,4.05-4.05-1.82-4.05-4.05"/>
          <path class="st16" d="M352.14,215.83c0-2.22,1.83-4.05,4.05-4.05s4.05,1.83,4.05,4.05-1.82,4.05-4.05,4.05-4.05-1.82-4.05-4.05"/>
          <path class="st16" d="M292.05,227.02c0-2.23,1.82-4.05,4.05-4.05s4.05,1.82,4.05,4.05-1.83,4.05-4.05,4.05-4.05-1.82-4.05-4.05"/>
          <path class="st16" d="M394.4,241.01c0-2.22,1.82-4.05,4.05-4.05s4.05,1.83,4.05,4.05-1.82,4.05-4.05,4.05-4.05-1.82-4.05-4.05"/>
          <path class="st16" d="M372.14,238c0-2.23,1.82-4.05,4.05-4.05s4.05,1.82,4.05,4.05-1.83,4.05-4.05,4.05-4.05-1.82-4.05-4.05"/>
          <path class="st16" d="M386.3,246.55c0-2.23,1.82-4.05,4.05-4.05s4.05,1.82,4.05,4.05-1.82,4.05-4.05,4.05-4.05-1.82-4.05-4.05"/>
          <polygon class="st9" points="400.78 201.91 406.24 211.35 395.33 211.35 400.78 201.91"/>
          <polygon class="st9" points="368.27 199.39 373.73 208.83 362.82 208.83 368.27 199.39"/>
          <polygon class="st9" points="348.63 165.07 354.09 174.52 343.18 174.52 348.63 165.07"/>
          <polygon class="st9" points="364.2 132.96 369.66 142.41 358.75 142.41 364.2 132.96"/>
          <polygon class="st9" points="399.4 119.1 404.85 128.55 393.94 128.55 399.4 119.1"/>
          <polygon class="st9" points="435.74 197.96 441.19 207.41 430.28 207.41 435.74 197.96"/>
          <polygon class="st9" points="361.33 146.45 366.78 155.9 355.87 155.9 361.33 146.45"/>
          <polygon class="st9" points="349.22 143.06 354.68 152.51 343.77 152.51 349.22 143.06"/>
          <polygon class="st9" points="394.5 211.68 399.95 221.13 389.04 221.13 394.5 211.68"/>
          <polygon class="st9" points="349.58 133 355.04 142.44 344.13 142.44 349.58 133"/>
          <polygon class="st9" points="374.27 144.55 379.73 154 368.82 154 374.27 144.55"/>
          <polygon class="st9" points="398.22 143.63 403.68 153.07 392.77 153.07 398.22 143.63"/>
          <polygon class="st9" points="401.24 161.54 406.7 170.99 395.79 170.99 401.24 161.54"/>
          <polygon class="st9" points="401.75 217.32 407.2 226.77 396.29 226.77 401.75 217.32"/>
          <polygon class="st9" points="389.42 165.95 394.87 175.4 383.96 175.4 389.42 165.95"/>
          <polygon class="st9" points="362.68 172.25 368.14 181.7 357.23 181.7 362.68 172.25"/>
          <polygon class="st9" points="343.47 155.45 348.93 164.9 338.02 164.9 343.47 155.45"/>
          <polygon class="st9" points="413.62 179.48 419.08 188.93 408.17 188.93 413.62 179.48"/>
          <polygon class="st9" points="358.02 189.63 363.48 199.08 352.57 199.08 358.02 189.63"/>
          <path class="st19" d="M288.55,191.92c0-3.35,2.73-6.08,6.08-6.08s6.07,2.73,6.07,6.08-2.73,6.07-6.07,6.07-6.08-2.73-6.08-6.07"/>
          <path class="st2" d="M288.55,191.92c0-3.35,2.73-6.08,6.08-6.08s6.07,2.73,6.07,6.08-2.73,6.07-6.07,6.07-6.08-2.73-6.08-6.07"/>
          <path class="st20" d="M323.38,203.18c0-3.34,2.74-6.08,6.08-6.08s6.07,2.74,6.07,6.08-2.73,6.07-6.07,6.07-6.08-2.73-6.08-6.07"/>
          <path class="st5" d="M323.38,203.18c0-3.34,2.74-6.08,6.08-6.08s6.07,2.74,6.07,6.08-2.73,6.07-6.07,6.07-6.08-2.73-6.08-6.07"/>
          <path class="st17" d="M373.63,173.69c0-3.34,2.73-6.08,6.07-6.08s6.08,2.74,6.08,6.08-2.74,6.07-6.08,6.07-6.07-2.73-6.07-6.07"/>
          <path class="st7" d="M373.63,173.69c0-3.34,2.73-6.08,6.07-6.08s6.08,2.74,6.08,6.08-2.74,6.07-6.08,6.07-6.07-2.73-6.07-6.07"/>
          <path class="st19" d="M288.55,191.92c0-3.35,2.73-6.08,6.08-6.08s6.07,2.73,6.07,6.08-2.73,6.07-6.07,6.07-6.08-2.73-6.08-6.07"/>
          <path class="st1" d="M288.55,191.92c0-3.35,2.73-6.08,6.08-6.08s6.07,2.73,6.07,6.08-2.73,6.07-6.07,6.07-6.08-2.73-6.08-6.07"/>
          <path class="st20" d="M323.38,203.18c0-3.34,2.74-6.08,6.08-6.08s6.07,2.74,6.07,6.08-2.73,6.07-6.07,6.07-6.08-2.73-6.08-6.07"/>
          <path class="st1" d="M323.38,203.18c0-3.34,2.74-6.08,6.08-6.08s6.07,2.74,6.07,6.08-2.73,6.07-6.07,6.07-6.08-2.73-6.08-6.07"/>
          <path class="st17" d="M373.63,173.69c0-3.34,2.73-6.08,6.07-6.08s6.08,2.74,6.08,6.08-2.74,6.07-6.08,6.07-6.07-2.73-6.07-6.07"/>
          <path class="st1" d="M373.63,173.69c0-3.34,2.73-6.08,6.07-6.08s6.08,2.74,6.08,6.08-2.74,6.07-6.08,6.07-6.07-2.73-6.07-6.07"/>
          <polyline class="st3" points="287.32 101.15 290.72 101.33 294.13 101.87 297.55 102.76 300.95 104 304.33 105.6 307.67 107.53 310.96 109.79 314.19 112.38 317.34 115.28 320.39 118.49 323.35 121.98 326.19 125.75 328.91 129.78 331.5 134.06 333.93 138.57 336.22 143.28 338.33 148.19 340.28 153.27 342.05 158.5 343.62 163.87 345.01 169.34 346.2 174.91 347.18 180.54 347.95 186.22 348.52 191.92 348.87 197.61 349.01 203.29 348.93 208.92 348.64 214.49 348.14 219.96 347.42 225.33 346.5 230.56 345.37 235.64 344.04 240.55 342.52 245.26 340.81 249.77 338.91 254.05 336.84 258.08 334.6 261.85 332.21 265.34 329.67 268.55 326.99 271.45 324.18 274.04 321.25 276.3 318.22 278.23 315.1 279.83 311.9 281.07 308.62 281.96 305.3 282.5 301.93 282.68 298.53 282.5 295.12 281.96 291.7 281.07 288.3 279.83 284.92 278.23 281.58 276.3 278.29 274.04 275.06 271.45 271.91 268.55 268.86 265.34 265.9 261.85 263.06 258.08 260.34 254.05 257.75 249.77 255.32 245.26 253.03 240.55 250.92 235.64 248.97 230.56 247.21 225.33 245.63 219.96 244.24 214.49 243.06 208.92 242.07 203.29 241.3 197.61 240.73 191.92 240.38 186.22 240.24 180.54 240.32 174.91 240.61 169.34 241.11 163.87 241.83 158.5 242.75 153.27 243.88 148.19 245.21 143.28 246.73 138.57 248.45 134.06 250.34 129.78 252.41 125.75 254.65 121.98 257.04 118.49 259.58 115.28 262.26 112.38 265.07 109.79 268 107.53 271.03 105.6 274.15 104 277.35 102.76 280.63 101.87 283.95 101.33 287.32 101.15"/>
          <polyline class="st8" points="440.5 232.32 440.28 226.65 439.63 220.89 438.54 215.06 437.01 209.18 435.07 203.28 432.71 197.38 429.93 191.5 426.77 185.67 423.22 179.91 419.3 174.24 415.02 168.68 410.41 163.26 405.47 158 400.24 152.91 394.73 148.03 388.96 143.36 382.95 138.93 376.74 134.75 370.34 130.84 363.77 127.21 357.07 123.89 350.26 120.88 343.37 118.19 336.43 115.84 329.46 113.84 322.48 112.18 315.54 110.89 308.65 109.96 301.84 109.4 295.14 109.21 288.58 109.39 282.18 109.93 275.96 110.85 269.96 112.13 264.19 113.77 258.67 115.77 253.44 118.11 248.51 120.78 243.89 123.78 239.62 127.09 235.7 130.71 232.15 134.6 228.98 138.77 226.21 143.2 223.85 147.86 221.9 152.74 220.38 157.82 219.29 163.07 218.63 168.49 218.41 174.04 218.63 179.71 219.29 185.47 220.38 191.3 221.9 197.17 223.85 203.07 226.21 208.98 228.98 214.85 232.15 220.69 235.7 226.45 239.62 232.12 243.89 237.68 248.51 243.1 253.44 248.36 258.67 253.44 264.19 258.33 269.96 263 275.96 267.43 282.18 271.61 288.58 275.52 295.14 279.14 301.84 282.47 308.65 285.48 315.54 288.16 322.48 290.51 329.46 292.52 336.43 294.17 343.37 295.47 350.26 296.4 357.07 296.96 363.77 297.15 370.34 296.97 376.74 296.42 382.95 295.51 388.96 294.22 394.73 292.58 400.24 290.59 405.47 288.25 410.41 285.58 415.02 282.58 419.3 279.27 423.22 275.65 426.77 271.75 429.93 267.58 432.71 263.16 435.07 258.5 437.01 253.62 438.54 248.54 439.63 243.28 440.28 237.87 440.5 232.32"/>
          <polyline class="st4" points="354.17 102.39 357.91 102.53 361.74 102.95 365.63 103.66 369.59 104.63 373.58 105.88 377.6 107.4 381.63 109.18 385.65 111.21 389.64 113.49 393.6 116.01 397.5 118.75 401.33 121.72 405.08 124.88 408.72 128.24 412.25 131.78 415.65 135.49 418.92 139.34 422.02 143.33 424.96 147.44 427.72 151.66 430.29 155.96 432.66 160.33 434.82 164.75 436.77 169.21 438.49 173.69 439.98 178.16 441.23 182.62 442.23 187.05 442.99 191.42 443.5 195.72 443.76 199.93 443.77 204.04 443.52 208.03 443.02 211.89 442.27 215.59 441.28 219.13 440.04 222.49 438.56 225.66 436.85 228.62 434.92 231.36 432.76 233.88 430.4 236.16 427.84 238.2 425.09 239.97 422.15 241.49 419.06 242.74 415.8 243.72 412.41 244.42 408.88 244.84 405.24 244.98 401.5 244.84 397.67 244.42 393.77 243.72 389.82 242.74 385.82 241.49 381.81 239.97 377.78 238.2 373.76 236.16 369.76 233.88 365.81 231.36 361.91 228.62 358.08 225.66 354.33 222.49 350.69 219.13 347.15 215.59 343.75 211.89 340.49 208.03 337.38 204.04 334.45 199.93 331.69 195.72 329.11 191.42 326.74 187.05 324.58 182.62 322.64 178.16 320.92 173.69 319.43 169.21 318.18 164.75 317.17 160.33 316.41 155.96 315.9 151.66 315.64 147.44 315.64 143.33 315.89 139.34 316.39 135.49 317.13 131.78 318.13 128.24 319.37 124.88 320.85 121.72 322.56 118.75 324.49 116.01 326.64 113.49 329.01 111.21 331.57 109.18 334.32 107.4 337.25 105.88 340.35 104.63 343.6 103.66 347 102.95 350.53 102.53 354.17 102.39"/>
          <rect class="st6" x="86.4" y="21.57" width="119.63" height="86.4"/>
          <rect class="st19" x="98.55" y="39.12" width="8.1" height="8.1"/>
          <path class="st20" d="M98.55,64.77c0-2.23,1.82-4.05,4.05-4.05s4.05,1.82,4.05,4.05-1.82,4.05-4.05,4.05-4.05-1.82-4.05-4.05"/>
          <polygon class="st17" points="102.6 80.07 108.05 89.52 97.15 89.52 102.6 80.07"/>
          <g class="st11">
            <text class="st14" transform="translate(118.8 49.63)"><tspan x="0" y="0">Un</tspan></text>
            <text class="st10" transform="translate(141.81 49.63)"><tspan x="0" y="0">b</tspan></text>
            <text class="st14" transform="translate(151.46 49.63)"><tspan x="0" y="0">u</tspan></text>
            <text class="st13" transform="translate(161.47 49.63)"><tspan x="0" y="0">r</tspan></text>
            <text class="st14" transform="translate(167.9 49.63)"><tspan x="0" y="0">ned</tspan></text>
          </g>
          <g class="st11">
            <text class="st14" transform="translate(118.8 71.23)"><tspan x="0" y="0">L</tspan></text>
            <text class="st10" transform="translate(128.81 71.23)"><tspan x="0" y="0">o</tspan></text>
            <text class="st14" transform="translate(138.55 71.23)"><tspan x="0" y="0">w</tspan></text>
          </g>
          <g class="st11">
            <text class="st14" transform="translate(118.8 92.83)"><tspan x="0" y="0">High</tspan></text>
          </g>
          <line class="st6" x1="333.98" y1="189.4" x2="400.97" y2="86.64"/>
          <polyline class="st6" points="400.77 90.24 400.97 86.64 397.76 88.27"/>
          <line class="st6" x1="333.98" y1="189.4" x2="440.54" y2="306.53"/>
          <polyline class="st6" points="437.11 305.43 440.54 306.53 439.78 303.01"/>
          <line class="st6" x1="333.98" y1="189.4" x2="179.62" y2="285.28"/>
          <polyline class="st6" points="181.32 282.1 179.62 285.28 183.22 285.16"/>
          <line class="st6" x1="333.98" y1="189.4" x2="343.91" y2="193.51"/>
          <polyline class="st6" points="340.34 193.98 343.91 193.51 341.72 190.65"/>
        </g>
      </g>
    </g>
  </g>
  <g class="st11">
    <text class="st12" transform="translate(349.32 195.09)"><tspan x="0" y="0">seedmass</tspan></text>
  </g>
  <g class="st11">
    <text class="st12" transform="translate(402.9 84.41)"><tspan x="0" y="0">sla</tspan></text>
  </g>
  <g class="st11">
    <text class="st12" transform="translate(441.26 321.43)"><tspan x="0" y="0">height</tspan></text>
  </g>
  <g class="st11">
    <text class="st12" transform="translate(98.5 299.38)"><tspan x="0" y="0">resprouting</tspan></text>
  </g>
</svg>